<svg width="18" height="12" viewBox="0 0 18 12" fill="none" xmlns="http://www.w3.org/2000/svg">
<path fill-rule="evenodd" clip-rule="evenodd" d="M17.75 5.99994C17.75 6.1657 17.6842 6.32467 17.5669 6.44188C17.4497 6.55909 17.2908 6.62494 17.125 6.62494L2.38375 6.62494L6.3175 10.5574C6.43486 10.6748 6.50079 10.834 6.50079 10.9999C6.50079 11.1659 6.43486 11.3251 6.3175 11.4424C6.20014 11.5598 6.04097 11.6257 5.875 11.6257C5.70903 11.6257 5.54986 11.5598 5.4325 11.4424L0.432498 6.44244C0.374296 6.38439 0.328117 6.31542 0.296609 6.23949C0.265102 6.16355 0.248882 6.08215 0.248882 5.99994C0.248882 5.91774 0.265102 5.83633 0.296609 5.7604C0.328117 5.68447 0.374296 5.6155 0.432498 5.55744L5.4325 0.557443C5.54986 0.440085 5.70903 0.374154 5.875 0.374154C6.04097 0.374154 6.20014 0.440085 6.3175 0.557443C6.43486 0.674801 6.50079 0.833974 6.50079 0.999943C6.50079 1.16591 6.43486 1.32508 6.3175 1.44244L2.38375 5.37494L17.125 5.37494C17.2908 5.37494 17.4497 5.44079 17.5669 5.558C17.6842 5.67521 17.75 5.83418 17.75 5.99994Z" fill="#868686"/>
</svg>
