<svg width="25" height="24" viewBox="0 0 25 24" fill="none" xmlns="http://www.w3.org/2000/svg">
<path d="M23.6453 21.8602L17.7289 15.9194C19.2502 14.1735 20.0836 11.9768 20.0836 9.68999C20.0836 4.34701 15.5811 0 10.0469 0C4.5128 0 0.0102539 4.34701 0.0102539 9.68999C0.0102539 15.033 4.5128 19.38 10.0469 19.38C12.1245 19.38 14.1044 18.775 15.7971 17.6265L21.7585 23.6124C22.0076 23.8622 22.3428 24 22.7019 24C23.0418 24 23.3643 23.8749 23.6091 23.6474C24.1293 23.1641 24.1459 22.3628 23.6453 21.8602ZM10.0469 2.52782C14.1375 2.52782 17.4654 5.74069 17.4654 9.68999C17.4654 13.6393 14.1375 16.8522 10.0469 16.8522C5.95634 16.8522 2.62852 13.6393 2.62852 9.68999C2.62852 5.74069 5.95634 2.52782 10.0469 2.52782Z" fill="white"/>
</svg>
