<svg width="16" height="16" viewBox="0 0 16 16" fill="none" xmlns="http://www.w3.org/2000/svg">
<path fill-rule="evenodd" clip-rule="evenodd" d="M11.4062 15.2386C12.3444 14.7971 13.1795 14.1816 13.8721 13.4331C14.4953 12.7596 15.003 11.9784 15.3668 11.1194C16.1348 9.30562 16.2067 7.27221 15.5687 5.40868C14.9307 3.54514 13.6275 1.9825 11.909 1.02005C10.1904 0.0575967 8.17715 -0.237001 6.25485 0.192682C4.33256 0.622365 2.63636 1.74612 1.49113 3.34871C0.345904 4.9513 -0.167836 6.92006 0.0483108 8.87789C0.264458 10.8357 1.1953 12.645 2.66254 13.9592C3.35741 14.5815 4.14945 15.0722 5 15.4162C5.94541 15.7986 6.96311 16 8 16L8 13.04C7.66529 13.04 7.33375 13.0067 7.00988 12.9418C6.13303 12.7661 5.31243 12.3589 4.6374 11.7543C3.71304 10.9264 3.12661 9.78651 2.99044 8.55308C2.85426 7.31964 3.17792 6.07932 3.89941 5.06969C4.6209 4.06006 5.68951 3.3521 6.90056 3.0814C8.1116 2.8107 9.37994 2.99629 10.4626 3.60264C11.5454 4.20898 12.3663 5.19345 12.7683 6.36747C13.1702 7.5415 13.1249 8.82255 12.6411 9.96525C12.2877 10.7997 11.7186 11.5176 11 12.0499C10.7346 12.2465 10.4488 12.4178 10.1459 12.5603L11.4062 15.2386Z" fill="#D7D7FF"/>
</svg>
