<svg width="24" height="25" viewBox="0 0 24 25" fill="none" xmlns="http://www.w3.org/2000/svg">
<path d="M22.125 22.1025C22.125 22.6195 21.7044 23.04 21.1875 23.04H2.8125C2.29556 23.04 1.875 22.6195 1.875 22.1025V3.72754C1.875 3.2106 2.29556 2.79004 2.8125 2.79004H11.0625V0.915039H2.8125C1.26169 0.915039 0 2.17673 0 3.72754V22.1025C0 23.6534 1.26169 24.915 2.8125 24.915H21.1875C22.7383 24.915 24 23.6534 24 22.1025V13.8525H22.125V22.1025Z" fill="white"/>
<path d="M14.6234 0.915039V2.79004H20.7976L5.71045 17.8771L7.03626 19.2029L22.1234 4.11585V10.29H23.9984V0.915039H14.6234Z" fill="white"/>
</svg>
